<?xml version="1.0" encoding="utf-8"?>
<!-- Generator: Adobe Illustrator 22.0.1, SVG Export Plug-In . SVG Version: 6.00 Build 0)  -->
<svg version="1.1"
	 id="svg2" xmlns:cc="http://creativecommons.org/ns#" xmlns:dc="http://purl.org/dc/elements/1.1/" xmlns:rdf="http://www.w3.org/1999/02/22-rdf-syntax-ns#" xmlns:svg="http://www.w3.org/2000/svg"
	 xmlns="http://www.w3.org/2000/svg" xmlns:xlink="http://www.w3.org/1999/xlink" x="0px" y="0px" width="1000.2px"
	 height="619.17px" viewBox="0 0 1000.2 619.17" enable-background="new 0 0 1000.2 619.17" xml:space="preserve">
<path fill="#2F51AB" d="M32.24,568.77c-4.57-11.97-9.13-23.9-13.43-35.93c-5.17-14.57-10.47-29.1-15.07-43.87
	c-1.73-5.57-4.87-12.3-3.13-18.13c2.53-8.57,13.5-7.13,19.73-4.07c5.43,21.8,12.97,43.23,20.07,64.53c2.97,8.9,5.87,17.8,9.1,26.57
	c3.73-12.83,7.47-25.63,11.1-38.47c3.37-11.93,6.67-23.9,9.83-35.87c1.23-4.7,2.03-10.07,4.7-14.2c4.3-6.7,14.87-6.13,21.13-2.4
	c2.97,12.43,6.03,24.8,9.17,37.17c2.7,10.53,5.37,21.1,8.37,31.57c2.1,7.33,4.2,14.7,6.27,22.03c4.37-12.93,8.67-25.87,12.83-38.87
	c3.87-12.07,7.47-24.17,11-36.33c1.3-4.47,2.27-9.7,5-13.53c4.7-6.67,15.93-5.67,21.9-1.17c-5.03,18.5-11.37,36.7-17.7,54.8
	c-4.2,12.03-8.47,24.03-13.07,35.93c-3.1,8.07-6.2,16.13-9.3,24.2h-23.13c-4.13-11.67-7.33-23.67-10.77-35.6
	c-3.13-10.77-5.97-21.63-8.7-32.5c-1.17-4.7-2.3-9.37-3.47-14.07c-5.03,20.6-10.87,41.13-17.17,61.4c-2.17,6.93-4.3,13.93-6.8,20.73
	H37.74L32.24,568.77 M221.11,565.54c22.3-9.6,20.93-45.9-2.37-53.33c-11.1-3.53-23.83,0.2-30.43,9.97
	c-6.43,9.53-6.73,22.97-0.87,32.8C194.28,566.44,208.91,570.8,221.11,565.54z M228.94,497.14c18.27,7.23,29.57,25,28.67,44.53
	c-0.9,19.47-14.37,35.87-32.9,41.4c-18.67,5.57-40.4-0.27-52.53-15.83c-11.87-15.23-12.57-37.53-1.7-53.53
	C183.01,495.24,208.54,489.04,228.94,497.14 M278.01,502.4c9.3-8.3,23-9.77,34.9-8.23c5,0.63,11.43,1.93,14.73,6.13
	c3.27,4.17,2.03,11.77-2.43,14.8c-8.6-4.07-21.53-6.27-29.93-0.43c-6.03,4.2-7.33,11.73-7.33,18.57c-0.03,12.03,0,24.03,0,36.07
	c0,4.47,0,8.97,0,13.43h-19.67c0-18.5-0.1-36.97,0-55.43C268.31,517.97,270.88,508.8,278.01,502.4 M341.11,457.8
	c4.57-3.73,11.9-2.37,16.93-0.37V582.7h-19.67V464.67C338.34,461.57,339.28,459.27,341.11,457.8 M441.11,528.37
	c-4.13-10.77-13.97-17.4-25.5-17.07c-11.67,0.3-21.47,8.1-24.53,19.33c-2.97,10.87-0.33,23.77,8.7,31c9,7.2,22.57,7.67,32.07,1.2
	C442.65,555.5,445.61,540.14,441.11,528.37z M445.78,457.8c4.47-3.77,11.87-2.33,16.83-0.37c0,10.93,0,21.87,0,32.8
	c0,14.23,0,28.47,0,42.73c0,8.67-0.73,17.37-4.03,25.47c-5.63,13.77-17.27,23.03-31.9,25.77c-15,2.8-31.27-0.5-42.77-10.87
	c-11.27-10.13-15.87-25.57-14.1-40.4c1.7-14.4,10.1-27.7,23.17-34.4c13.23-6.8,30.23-6.67,42.7,1.7c2.8,1.87,5.37,4.13,7.47,6.8
	c0-13.2,0-26.4,0-39.6C443.11,463.97,442.91,460.2,445.78,457.8 M513.71,559c9.73,5.1,21.03,7.9,31.97,8.57
	c8.63,0.53,19.77,0.83,27.3-4.23c7.9-5.37,8.97-17.87,1.03-23.73c-5.8-4.3-13.6-5-20.53-6.23c-14.77-2.7-31.9-4.03-43.27-14.83
	c-7.83-7.47-10.3-18.17-8.27-28.63c2.07-10.67,9-18.6,18.7-23.2c11-5.2,23.43-5.87,35.4-5.27c11.43,0.57,23.23,2.7,33.07,8.8
	c3.93,2.7,6.87,6.27,6.07,11.27c-0.6,3.9-3.47,7.93-6.77,10.13c-3.63-4.03-9.27-6.53-14.3-8.33c-5.53-2-11.4-3.37-17.27-3.93
	c-9.53-0.93-24.13-1.5-31.3,6.33c-3.47,3.8-4.43,10.07-2.6,14.83c1.6,4.13,5.47,6.5,9.4,8.1c6.33,2.57,13.3,3.5,20,4.77
	c14.87,2.8,33.73,4.63,43.5,17.6c6.27,8.33,6.93,20.77,3.47,30.37c-3.9,10.73-13.4,17.73-23.97,21.13
	c-12.63,4.13-26.9,4.23-39.9,2.3c-12.73-1.9-25.7-5.9-36.5-13.07l8.97-16.07C509.28,556.57,511.18,557.67,513.71,559 M665.58,543.04
	c-8-1.17-17.17-1.5-25.07,0.37c-7.47,1.73-12.2,7-11.53,14.93c0.77,9.67,10.53,11.77,18.63,12.3c8,0.53,16.6,0.37,24.47-1.37v-25.2
	C670.91,543.84,668.75,543.47,665.58,543.04z M686.11,583.17c-11.87,1.37-23.87,2.2-35.8,1.93c-10.43-0.2-21.97-1.37-30.87-7.33
	c-9.83-6.53-11.97-19.2-9.03-30.07c2.93-10.83,12.7-15.87,23.07-17.83c12.5-2.37,25.87-1.63,38.43-0.17c0-5.23-1.27-10.57-5.1-14.37
	c-3.93-3.83-9.53-5.03-14.8-5.53c-5.7-0.53-11.63-0.5-17.27,0.6c-4.27,0.83-9.43,2.37-12.87,5.17c-6.37-5.33-6-14.23,1.5-18.17
	c6.57-3.47,14.77-3.7,22-3.73c15.3-0.07,33.43,3,41.73,17.5c4.47,7.83,4.5,16.57,4.5,25.27c0,8.77,0,17.5,0,26.23
	c0,6.57,0,13.1,0,19.67C690.41,582.6,688.61,582.87,686.11,583.17 M709.45,498.27c4.6-3.6,11.9-2.27,16.93-0.27v84.73h-19.67
	c0-23.6,0-47.2,0-70.83C706.68,507.67,705.75,501.14,709.45,498.27z M724.98,460.74c4.57,4.57,4.57,12.33,0,16.93
	c-4.57,4.6-12.33,4.57-16.9,0c-4.57-4.57-4.57-12.33,0-16.93C712.65,456.14,720.42,456.14,724.98,460.74 M745.08,457.8
	c4.57-3.73,11.9-2.37,16.93-0.37V582.7h-19.67V464.67C742.32,461.57,743.25,459.27,745.08,457.8 M780.55,498.27
	c4.6-3.6,11.9-2.27,16.93-0.27v84.73h-19.67c0-23.6,0-47.2,0-70.83C777.78,507.67,776.85,501.14,780.55,498.27z M796.05,460.74
	c4.57,4.57,4.57,12.33,0,16.93c-4.57,4.6-12.33,4.57-16.9,0c-4.57-4.57-4.57-12.33,0-16.93
	C783.72,456.14,791.48,456.14,796.05,460.74 M815.35,514.97c2.13-4.53,5.07-8.4,8.8-11.57c3.73-3.13,8.17-5.57,13.3-7.23
	c10.7-3.47,23.03-3.43,33.73,0c5.17,1.67,9.67,4.1,13.4,7.23c7.97,6.77,11.83,16.7,11.83,27v52.27h-19.67v-47.3
	c0-7.8-1.9-13.77-5.7-17.87c-7.9-8.5-25.7-8.57-33.57,0c-3.73,4.1-5.6,10.03-5.6,17.87v47.3h-19.67v-52.23
	C812.15,524.7,813.22,519.54,815.35,514.97 M964.65,564.44c22.77-9.77,19.97-47.2-4.7-52.4c-11.63-2.47-23.67,2.47-29.27,13.1
	c-4.93,9.4-4.67,22.37,1.63,31.1C939.45,566.14,953.68,569.14,964.65,564.44z M924.22,598.87c6.13,2.5,12.97,3.7,19.57,4.1
	c7.37,0.47,15.4,0.07,22.2-3.13c11.77-5.6,14.6-17.73,14.6-29.67c-9.33,10.97-24.13,14.53-37.9,12.3
	c-14.23-2.27-26.5-11.23-32.17-24.6c-5.57-13.07-4.8-29,2.17-41.43c7.07-12.53,20.03-20.43,34.17-22.23
	c13.83-1.77,29.1,1.17,39.5,10.87c10.4,9.7,13.63,24.13,13.73,37.87c0.03,6.33,0,12.63,0,19c0,9.67-0.13,19.33-3.47,28.53
	c-5.53,15.3-17.93,24.8-33.83,27.57c-8.5,1.47-17.37,1.27-25.9,0.07c-7.13-1-14.57-2.57-21.03-5.8l5.37-14.67
	C921.65,597.8,922.65,598.24,924.22,598.87"/>
<g>
	<path fill="#26B9E8" d="M548.85,108.53L548.85,108.53L548.85,108.53C385.81,270.97,238.51,394.2,238.51,394.2h256.64
		c0,0,134.83-118.53,158.87-394.1C619.08,37.46,583.61,73.9,548.85,108.53z"/>
	<path fill="#DD048C" d="M548.85,108.53c-67,127.2-53.7,285.67-53.7,285.67s231.27,0,266.54,0
		C745.18,246.33,666.65,154.17,548.85,108.53z"/>
	<path id="path18" fill="#2F51AB" d="M627.35,150.23c-28.33-20.43-56.27-33.7-78.47-41.7c-67,127.2-53.7,285.67-53.7,285.67
		S581.05,309.97,627.35,150.23"/>
</g>
</svg>
